# xmcd
#
# Track frame offsets:
#	150
#	9730
#	18712
#	38373
#	51149
#	66019
#	78740
#	93356
#	106351
#	116843
#	130379
#	141264
#	152263
#	165223
#
# Disc length: 2359 seconds
# Revision: 0
# Processed by: cddbd v1.5.2PL0 Copyright (c) Steve Scherf et al.
# Submitted via: dBpowerAMP V12.0
#
DISCID=ae09350e
DTITLE=Carolyn Martin - Songs of Patsy Cline
DYEAR=1900
DGENRE=Country
TTITLE0=Come On In (and Make Yourself at Home)
TTITLE1=Walkin' After Midnight
TTITLE2=Faded Love
TTITLE3=I Fall To Pieces
TTITLE4=San Antonio Rose
TTITLE5=Crazy
TTITLE6=Anytime
TTITLE7=Someday
TTITLE8=Strange
TTITLE9=She's Got You
TTITLE10=Honkytonk Merry Go Round
TTITLE11=Leavin' On Your Mind
TTITLE12=You're Stronger Than Me
TTITLE13=Sweet Dreams
EXTD=
EXTT0=
EXTT1=
EXTT2=
EXTT3=
EXTT4=
EXTT5=
EXTT6=
EXTT7=
EXTT8=
EXTT9=
EXTT10=
EXTT11=
EXTT12=
EXTT13=
PLAYORDER=
